<?xml version="1.0" encoding="utf-8"?>
<!-- Generator: Adobe Illustrator 23.0.4, SVG Export Plug-In . SVG Version: 6.00 Build 0)  -->
<svg version="1.1" id="script-frame" xmlns="http://www.w3.org/2000/svg" xmlns:xlink="http://www.w3.org/1999/xlink" x="0px"
	 y="0px" viewBox="0 0 344 422.3" style="enable-background:new 0 0 344 422.3;" xml:space="preserve">
<style type="text/css">
	.frame-color{fill:#FFFFFF;}
	.background-color{fill:#ffffff;}
	.text-color{fill:#000000;}
	.outline{fill:#E6E6E6;}
</style>
	<svg id="TextArea" x="0" y="270" width="339" height="140" viewBox="0 0 47.87255859375 17.588541666667" preserveAspectRatio="xMidYMid meet">
<svg version="1.1" xmlns="http://www.w3.org/2000/svg"><path class="frame-color" fill="#FFFFFF" d=" M9.70556640625,6.01025390625q0.00537109375,0.0107421875,0.021484375,0.051025390625t0.0322265625,0.09130859375t0.029541015625,0.10205078125t0.013427734375,0.072509765625q0,0.1826171875-0.0751953125,0.437744140625t-0.206787109375,0.539794921875t-0.308837890625,0.580078125t-0.3759765625,0.561279296875t-0.410888671875,0.4833984375t-0.416259765625,0.346435546875q-0.0751953125-0.06982421875-0.179931640625-0.16650390625t-0.222900390625-0.206787109375t-0.236328125-0.222900390625t-0.22021484375-0.22021484375q0.15576171875-0.12353515625,0.351806640625-0.324951171875t0.3974609375-0.448486328125t0.394775390625-0.51025390625t0.335693359375-0.507568359375t0.222900390625-0.443115234375t0.05908203125-0.31689453125q-0.01611328125-0.05908203125-0.051025390625-0.083251953125t-0.126220703125-0.024169921875q-0.32763671875,0-0.75732421875,0.12890625t-0.89697265625,0.373291015625t-0.942626953125,0.598876953125t-0.8916015625,0.80029296875t-0.7412109375,0.9775390625t-0.496826171875,1.13330078125q0.3759765625-0.00537109375,0.71435546875-0.029541015625t0.64453125-0.051025390625t0.58544921875-0.04833984375t0.54248046875-0.021484375q0.1396484375,0,0.30078125,0.150390625t0.30078125,0.35986328125t0.23095703125,0.4296875t0.09130859375,0.3544921875q0,0.38134765625-0.196044921875,0.765380859375t-0.5263671875,0.7412109375t-0.765380859375,0.666015625t-0.915771484375,0.537109375t-0.980224609375,0.35986328125t-0.95068359375,0.131591796875q-0.05908203125-0.04833984375-0.15576171875-0.147705078125t-0.206787109375-0.22021484375t-0.2255859375-0.255126953125t-0.21484375-0.2578125t-0.174560546875-0.2255859375t-0.10205078125-0.15576171875q0.29541015625,0.04296875,0.711669921875,0.021484375t0.878173828125-0.1181640625t0.931884765625-0.276611328125t0.878173828125-0.453857421875t0.7197265625-0.652587890625t0.451171875-0.878173828125q-0.3115234375,0.00537109375-0.56396484375,0.029541015625t-0.48876953125,0.0537109375t-0.4833984375,0.051025390625t-0.5478515625,0.021484375q-0.0966796875,0-0.20947265625-0.002685546875t-0.2255859375-0.01611328125t-0.21484375-0.045654296875t-0.16650390625-0.09130859375q-0.14501953125-0.12353515625-0.279296875-0.260498046875t-0.24169921875-0.279296875t-0.171875-0.287353515625t-0.064453125-0.279296875q0-0.408203125,0.2041015625-0.910400390625t0.566650390625-1.012451171875t0.856689453125-0.990966796875t1.076904296875-0.856689453125t1.227294921875-0.6015625t1.30517578125-0.2255859375q0.23095703125,0,0.421630859375,0.06982421875t0.346435546875,0.1826171875t0.279296875,0.249755859375t0.22021484375,0.265869140625t0.16650390625,0.239013671875t0.1181640625,0.169189453125z M13.3310546875,8.39501953125q0.1611328125-0.10205078125,0.341064453125-0.260498046875t0.35986328125-0.35986328125t0.346435546875-0.43505859375t0.292724609375-0.47265625t0.201416015625-0.47802734375t0.0751953125-0.459228515625q0-0.16650390625-0.02685546875-0.2685546875t-0.072509765625-0.158447265625t-0.104736328125-0.077880859375t-0.12353515625-0.021484375q-0.2578125,0-0.58544921875,0.217529296875t-0.690185546875,0.5908203125t-0.7412109375,0.872802734375t-0.733154296875,1.071533203125t-0.668701171875,1.178955078125t-0.5478515625,1.19775390625t-0.37060546875,1.130615234375t-0.136962890625,0.969482421875q0,0.1611328125,0.024169921875,0.265869140625t0.06982421875,0.16650390625t0.115478515625,0.083251953125t0.1611328125,0.021484375q0.15576171875,0,0.367919921875-0.131591796875t0.451171875-0.341064453125t0.4833984375-0.46728515625t0.459228515625-0.507568359375t0.38671875-0.4619140625t0.26318359375-0.335693359375q0,0.00537109375,0.131591796875,0.11279296875t0.308837890625,0.2578125t0.3544921875,0.303466796875t0.2685546875,0.249755859375q-0.12890625,0.14501953125-0.32763671875,0.37060546875t-0.448486328125,0.475341796875t-0.534423828125,0.502197265625t-0.58544921875,0.453857421875t-0.60693359375,0.32763671875t-0.59619140625,0.126220703125q-0.20947265625,0-0.44580078125-0.126220703125t-0.46728515625-0.32763671875t-0.4296875-0.44580078125t-0.3330078125-0.486083984375q-0.1611328125-0.30078125-0.18798828125-0.55322265625t-0.02685546875-0.40283203125q0-0.41357421875,0.1181640625-0.9345703125t0.33837890625-1.087646484375t0.53173828125-1.152099609375t0.690185546875-1.13330078125t0.82177734375-1.03125t0.92919921875-0.84326171875t1.00439453125-0.566650390625t1.050048828125-0.206787109375q0.150390625,0,0.31689453125,0.077880859375t0.32763671875,0.2041015625t0.3115234375,0.292724609375t0.26318359375,0.341064453125t0.179931640625,0.34912109375t0.067138671875,0.319580078125q0,0.322265625-0.12890625,0.711669921875t-0.34912109375,0.7841796875t-0.523681640625,0.770751953125t-0.647216796875,0.67138671875z M22.064453125,6.3271484375q0,0.25244140625-0.104736328125,0.561279296875t-0.27392578125,0.6337890625t-0.39208984375,0.652587890625t-0.453857421875,0.61767578125q0.1396484375,0.1396484375,0.25244140625,0.255126953125t0.1611328125,0.153076171875q-0.0751953125,0.12890625-0.206787109375,0.378662109375t-0.279296875,0.566650390625t-0.30078125,0.67138671875t-0.276611328125,0.695556640625t-0.201416015625,0.64453125t-0.077880859375,0.507568359375q0,0.2685546875,0.072509765625,0.49951171875t0.21484375,0.405517578125t0.3544921875,0.2900390625t0.491455078125,0.147705078125l-0.26318359375,0.34912109375q-0.064453125,0-0.19873046875-0.029541015625t-0.30078125-0.10205078125t-0.34912109375-0.196044921875t-0.34375-0.314208984375t-0.28466796875-0.45654296875t-0.171875-0.625732421875q-0.2578125,0.2685546875-0.555908203125,0.53173828125t-0.614990234375,0.47265625t-0.641845703125,0.33837890625t-0.631103515625,0.12890625q-0.17724609375,0-0.362548828125-0.0966796875t-0.365234375-0.255126953125t-0.34375-0.367919921875t-0.2900390625-0.432373046875t-0.20947265625-0.443115234375t-0.099365234375-0.408203125q0-0.06982421875,0.002685546875-0.169189453125t0.008056640625-0.206787109375t0.013427734375-0.20947265625t0.018798828125-0.1826171875q0.08056640625-0.47802734375,0.2578125-1.009765625t0.432373046875-1.07958984375t0.577392578125-1.09033203125t0.6982421875-1.03662109375t0.794921875-0.915771484375t0.862060546875-0.73046875t0.90234375-0.486083984375t0.915771484375-0.17724609375q0.15576171875,0,0.3330078125,0.08056640625t0.351806640625,0.20947265625t0.3330078125,0.292724609375t0.279296875,0.3330078125t0.193359375,0.32763671875t0.072509765625,0.276611328125z M16.4677734375,13.169921875q0.10205078125,0,0.298095703125-0.1181640625t0.45654296875-0.33837890625t0.566650390625-0.54248046875t0.61767578125-0.727783203125t0.614990234375-0.8916015625t0.566650390625-1.039306640625l-0.6337890625-0.6337890625q0.09130859375-0.0966796875,0.28466796875-0.2578125t0.4296875-0.38134765625t0.486083984375-0.491455078125t0.45654296875-0.58544921875t0.341064453125-0.66064453125t0.13427734375-0.722412109375q0-0.20947265625-0.083251953125-0.319580078125t-0.147705078125-0.110107421875q-0.31689453125,0-0.690185546875,0.228271484375t-0.765380859375,0.61767578125t-0.786865234375,0.910400390625t-0.75732421875,1.11181640625t-0.6767578125,1.2138671875t-0.545166015625,1.21923828125t-0.365234375,1.13330078125t-0.13427734375,0.9453125q0,0.4404296875,0.3330078125,0.4404296875z M28.9072265625,6.62255859375q0,0.279296875-0.04833984375,0.657958984375t-0.163818359375,0.8701171875t-0.3115234375,1.098388671875t-0.486083984375,1.34814453125q-0.31689453125,0.8056640625-0.647216796875,1.426025390625t-0.61767578125,1.050048828125t-0.502197265625,0.666015625t-0.30078125,0.279296875q-0.1396484375,0.064453125-0.30615234375,0.064453125q-0.1396484375,0-0.28466796875-0.04296875t-0.2470703125-0.13427734375q-0.064453125-0.0537109375-0.212158203125-0.27392578125t-0.314208984375-0.625732421875t-0.322265625-1.012451171875t-0.23095703125-1.44482421875q-0.23095703125,0.30078125-0.5048828125,0.64453125t-0.55859375,0.684814453125t-0.566650390625,0.666015625t-0.529052734375,0.593505859375t-0.4404296875,0.464599609375t-0.30078125,0.281982421875q-0.05908203125-0.0537109375-0.136962890625-0.12890625t-0.1611328125-0.158447265625t-0.1611328125-0.169189453125t-0.136962890625-0.1611328125q0.7841796875-0.6875,1.58984375-1.93896484375t1.5361328125-3.0185546875q0.09130859375,0.0751953125,0.171875,0.150390625t0.15576171875,0.150390625q0.021484375-0.751953125,0.051025390625-1.33740234375t0.067138671875-1.033935546875t0.072509765625-0.770751953125t0.067138671875-0.5478515625t0.056396484375-0.367919921875t0.040283203125-0.228271484375q0.0537109375,0.04833984375,0.1611328125,0.153076171875t0.24169921875,0.233642578125t0.281982421875,0.271240234375t0.279296875,0.271240234375t0.23095703125,0.23095703125t0.136962890625,0.150390625q-0.06982421875,0.2685546875-0.158447265625,0.625732421875t-0.16650390625,0.837890625t-0.131591796875,1.098388671875t-0.0537109375,1.4072265625q0.00537109375,0.73583984375,0.0537109375,1.42333984375q0.021484375,0.29541015625,0.051025390625,0.609619140625t0.0751953125,0.61767578125t0.110107421875,0.582763671875t0.14501953125,0.49951171875q0.67138671875-1.1064453125,1.071533203125-2.14306640625t0.614990234375-2.0302734375t0.279296875-1.957763671875t0.064453125-1.925537109375l0-0.37060546875q0.279296875,0.21484375,0.53173828125,0.47802734375t0.44580078125,0.49951171875q0.2255859375,0.27392578125,0.4189453125,0.55322265625l0,0.1826171875z  M39.3486328125,5.61279296875q-0.322265625,0.8916015625-0.60693359375,1.81005859375t-0.49951171875,1.963134765625t-0.34375,2.255859375t-0.13427734375,2.682861328125q-0.064453125,0.04296875-0.190673828125,0.115478515625t-0.279296875,0.15576171875t-0.319580078125,0.169189453125t-0.319580078125,0.16650390625t-0.276611328125,0.14501953125t-0.18798828125,0.0966796875q0.00537109375-0.40283203125,0.0537109375-0.88623046875t0.131591796875-1.017822265625t0.193359375-1.109130859375t0.239013671875-1.16015625q-0.38671875,0.52099609375-0.738525390625,0.867431640625t-0.625732421875,0.555908203125q-0.31689453125,0.2470703125-0.5908203125,0.39208984375q-0.11279296875,0.064453125-0.27392578125,0.0107421875t-0.319580078125-0.1611328125t-0.2900390625-0.236328125t-0.185302734375-0.21484375t-0.115478515625-0.48876953125t-0.088623046875-1.15478515625q-0.23095703125,0.30078125-0.49951171875,0.6337890625t-0.545166015625,0.663330078125t-0.545166015625,0.63916015625t-0.502197265625,0.56396484375t-0.4189453125,0.4404296875t-0.287353515625,0.265869140625q-0.0537109375-0.05908203125-0.131591796875-0.13427734375t-0.1611328125-0.158447265625t-0.163818359375-0.16650390625t-0.1396484375-0.158447265625q0.7841796875-0.6875,1.58984375-1.941650390625t1.5361328125-3.021240234375q0.08056640625,0.06982421875,0.150390625,0.13427734375t0.13427734375,0.12890625q0.04296875-0.8486328125,0.131591796875-1.882568359375t0.255126953125-2.296142578125q0.02685546875,0.0107421875,0.126220703125,0.10205078125t0.233642578125,0.228271484375t0.28466796875,0.29541015625t0.287353515625,0.303466796875t0.239013671875,0.2578125t0.1396484375,0.15576171875q-0.0107421875,0.04296875-0.04833984375,0.23095703125t-0.088623046875,0.4833984375t-0.110107421875,0.6767578125t-0.107421875,0.808349609375t-0.083251953125,0.880859375t-0.040283203125,0.888916015625q-0.00537109375,0.1826171875-0.008056640625,0.421630859375t-0.002685546875,0.491455078125t0.008056640625,0.496826171875t0.024169921875,0.4404296875t0.045654296875,0.322265625t0.077880859375,0.136962890625q0.05908203125,0.01611328125,0.28466796875-0.15576171875t0.54248046875-0.5048828125t0.690185546875-0.808349609375t0.722412109375-1.066162109375q0.1611328125-0.62841796875,0.324951171875-1.2138671875t0.31689453125-1.0849609375t0.287353515625-0.894287109375t0.24169921875-0.647216796875q0.107421875,0.00537109375,0.244384765625,0.013427734375t0.276611328125,0.021484375t0.260498046875,0.02685546875t0.196044921875,0.024169921875z M43.87109375,7.96533203125q0.2041015625-0.16650390625,0.3974609375-0.41357421875t0.34375-0.52099609375t0.24169921875-0.55859375t0.09130859375-0.53173828125q0-0.19873046875-0.093994140625-0.335693359375t-0.341064453125-0.136962890625q-0.20947265625,0-0.4619140625,0.0966796875t-0.51025390625,0.265869140625t-0.502197265625,0.40283203125t-0.432373046875,0.507568359375t-0.303466796875,0.57470703125t-0.115478515625,0.60693359375q0,0.26318359375,0.064453125,0.453857421875t0.18798828125,0.33837890625t0.298095703125,0.271240234375t0.400146484375,0.2578125q-0.6767578125,0.28466796875-1.243408203125,0.700927734375t-0.974853515625,0.899658203125t-0.636474609375,0.996337890625t-0.228271484375,0.985595703125q0,0.16650390625,0.08056640625,0.292724609375t0.25244140625,0.126220703125q0.2255859375,0,0.5048828125-0.12353515625t0.580078125-0.322265625t0.604248046875-0.44580078125t0.5693359375-0.496826171875t0.475341796875-0.475341796875t0.3330078125-0.38134765625q0.322265625,0.2578125,0.55859375,0.459228515625t0.4404296875,0.367919921875q-0.09130859375,0.12353515625-0.303466796875,0.34375t-0.5048828125,0.47265625t-0.63916015625,0.512939453125t-0.70361328125,0.469970703125t-0.706298828125,0.34375t-0.63916015625,0.13427734375q-0.25244140625,0-0.502197265625-0.0859375t-0.475341796875-0.228271484375t-0.416259765625-0.32763671875t-0.3330078125-0.384033203125t-0.228271484375-0.3974609375t-0.09130859375-0.37060546875l0-0.12890625q0-0.56396484375,0.19873046875-1.0634765625t0.545166015625-0.921142578125t0.81103515625-0.7626953125t0.996337890625-0.593505859375q-0.0966796875-0.0966796875-0.190673828125-0.20947265625t-0.16650390625-0.255126953125t-0.115478515625-0.319580078125t-0.04296875-0.3974609375q0-0.3759765625,0.13427734375-0.73583984375t0.35986328125-0.6767578125t0.529052734375-0.580078125t0.641845703125-0.453857421875t0.69287109375-0.298095703125t0.6875-0.107421875q0.55322265625,0,0.7734375,0.11279296875q0.1826171875,0.0966796875,0.394775390625,0.279296875t0.394775390625,0.400146484375t0.30615234375,0.4404296875t0.12353515625,0.400146484375q0,0.30615234375-0.10205078125,0.63916015625t-0.2685546875,0.647216796875t-0.38134765625,0.5908203125t-0.43505859375,0.464599609375z "/></svg>
</svg>

<path id="WhiteBackground" class="background-color" d="M297.8,1H46.1c-7.6,0-13.7,6.2-13.7,13.7v251.7c0,7.6,6.2,13.7,13.7,13.7h251.6
	c7.6,0,13.7-6.2,13.8-13.7V14.7C311.5,7.1,305.3,1,297.8,1z"/>
<path id="Outline" class="outline" d="M297.7,281.1H46.1c-8.1,0-14.7-6.6-14.7-14.7V14.7C31.4,6.6,38,0,46.1,0h251.7
	c8.1,0,14.7,6.6,14.7,14.7v251.7C312.4,274.5,305.8,281.1,297.7,281.1z M46.1,2c-7,0-12.7,5.7-12.7,12.7v251.7
	c0,7,5.7,12.7,12.7,12.7h251.6c7,0,12.7-5.7,12.8-12.7V14.7c0-7-5.7-12.7-12.7-12.7H46.1z"/>

<svg xmlns="http://www.w3.org/2000/svg" xmlns:xlink="http://www.w3.org/1999/xlink" version="1.1" width="267.7" height="267.7" viewBox="0 0 2000 2000" x="38.2" y="6.7" shape-rendering="crispEdges"><defs/><rect x="0" y="0" width="2000" height="2000" fill="#ffffff"/><svg viewBox="0 0 3.4 3.4" x="776" y="200" width="64" height="64" shape-rendering="auto"><circle fill="#000000" cx="1.7" cy="1.7" r="1.7"/></svg><svg viewBox="0 0 3.4 3.4" x="1096" y="200" width="64" height="64" shape-rendering="auto"><circle fill="#000000" cx="1.7" cy="1.7" r="1.7"/></svg><svg viewBox="0 0 3.4 3.4" x="1224" y="200" width="64" height="64" shape-rendering="auto"><circle fill="#000000" cx="1.7" cy="1.7" r="1.7"/></svg><svg viewBox="0 0 3.4 3.4" x="712" y="264" width="64" height="64" shape-rendering="auto"><circle fill="#000000" cx="1.7" cy="1.7" r="1.7"/></svg><svg viewBox="0 0 3.4 3.4" x="776" y="264" width="64" height="64" shape-rendering="auto"><circle fill="#000000" cx="1.7" cy="1.7" r="1.7"/></svg><svg viewBox="0 0 3.4 3.4" x="904" y="264" width="64" height="64" shape-rendering="auto"><circle fill="#000000" cx="1.7" cy="1.7" r="1.7"/></svg><svg viewBox="0 0 3.4 3.4" x="968" y="264" width="64" height="64" shape-rendering="auto"><circle fill="#000000" cx="1.7" cy="1.7" r="1.7"/></svg><svg viewBox="0 0 3.4 3.4" x="1032" y="264" width="64" height="64" shape-rendering="auto"><circle fill="#000000" cx="1.7" cy="1.7" r="1.7"/></svg><svg viewBox="0 0 3.4 3.4" x="1096" y="264" width="64" height="64" shape-rendering="auto"><circle fill="#000000" cx="1.7" cy="1.7" r="1.7"/></svg><svg viewBox="0 0 3.4 3.4" x="776" y="328" width="64" height="64" shape-rendering="auto"><circle fill="#000000" cx="1.7" cy="1.7" r="1.7"/></svg><svg viewBox="0 0 3.4 3.4" x="840" y="328" width="64" height="64" shape-rendering="auto"><circle fill="#000000" cx="1.7" cy="1.7" r="1.7"/></svg><svg viewBox="0 0 3.4 3.4" x="904" y="328" width="64" height="64" shape-rendering="auto"><circle fill="#000000" cx="1.7" cy="1.7" r="1.7"/></svg><svg viewBox="0 0 3.4 3.4" x="712" y="392" width="64" height="64" shape-rendering="auto"><circle fill="#000000" cx="1.7" cy="1.7" r="1.7"/></svg><svg viewBox="0 0 3.4 3.4" x="776" y="392" width="64" height="64" shape-rendering="auto"><circle fill="#000000" cx="1.7" cy="1.7" r="1.7"/></svg><svg viewBox="0 0 3.4 3.4" x="904" y="392" width="64" height="64" shape-rendering="auto"><circle fill="#000000" cx="1.7" cy="1.7" r="1.7"/></svg><svg viewBox="0 0 3.4 3.4" x="1032" y="392" width="64" height="64" shape-rendering="auto"><circle fill="#000000" cx="1.7" cy="1.7" r="1.7"/></svg><svg viewBox="0 0 3.4 3.4" x="1160" y="392" width="64" height="64" shape-rendering="auto"><circle fill="#000000" cx="1.7" cy="1.7" r="1.7"/></svg><svg viewBox="0 0 3.4 3.4" x="1224" y="392" width="64" height="64" shape-rendering="auto"><circle fill="#000000" cx="1.7" cy="1.7" r="1.7"/></svg><svg viewBox="0 0 3.4 3.4" x="840" y="456" width="64" height="64" shape-rendering="auto"><circle fill="#000000" cx="1.7" cy="1.7" r="1.7"/></svg><svg viewBox="0 0 3.4 3.4" x="968" y="456" width="64" height="64" shape-rendering="auto"><circle fill="#000000" cx="1.7" cy="1.7" r="1.7"/></svg><svg viewBox="0 0 3.4 3.4" x="1160" y="456" width="64" height="64" shape-rendering="auto"><circle fill="#000000" cx="1.7" cy="1.7" r="1.7"/></svg><svg viewBox="0 0 3.4 3.4" x="1224" y="456" width="64" height="64" shape-rendering="auto"><circle fill="#000000" cx="1.7" cy="1.7" r="1.7"/></svg><svg viewBox="0 0 3.4 3.4" x="712" y="520" width="64" height="64" shape-rendering="auto"><circle fill="#000000" cx="1.7" cy="1.7" r="1.7"/></svg><svg viewBox="0 0 3.4 3.4" x="840" y="520" width="64" height="64" shape-rendering="auto"><circle fill="#000000" cx="1.7" cy="1.7" r="1.7"/></svg><svg viewBox="0 0 3.4 3.4" x="1032" y="520" width="64" height="64" shape-rendering="auto"><circle fill="#000000" cx="1.7" cy="1.7" r="1.7"/></svg><svg viewBox="0 0 3.4 3.4" x="1096" y="520" width="64" height="64" shape-rendering="auto"><circle fill="#000000" cx="1.7" cy="1.7" r="1.7"/></svg><svg viewBox="0 0 3.4 3.4" x="1160" y="520" width="64" height="64" shape-rendering="auto"><circle fill="#000000" cx="1.7" cy="1.7" r="1.7"/></svg><svg viewBox="0 0 3.4 3.4" x="712" y="584" width="64" height="64" shape-rendering="auto"><circle fill="#000000" cx="1.7" cy="1.7" r="1.7"/></svg><svg viewBox="0 0 3.4 3.4" x="840" y="584" width="64" height="64" shape-rendering="auto"><circle fill="#000000" cx="1.7" cy="1.7" r="1.7"/></svg><svg viewBox="0 0 3.4 3.4" x="968" y="584" width="64" height="64" shape-rendering="auto"><circle fill="#000000" cx="1.7" cy="1.7" r="1.7"/></svg><svg viewBox="0 0 3.4 3.4" x="1096" y="584" width="64" height="64" shape-rendering="auto"><circle fill="#000000" cx="1.7" cy="1.7" r="1.7"/></svg><svg viewBox="0 0 3.4 3.4" x="1224" y="584" width="64" height="64" shape-rendering="auto"><circle fill="#000000" cx="1.7" cy="1.7" r="1.7"/></svg><svg viewBox="0 0 3.4 3.4" x="968" y="648" width="64" height="64" shape-rendering="auto"><circle fill="#000000" cx="1.7" cy="1.7" r="1.7"/></svg><svg viewBox="0 0 3.4 3.4" x="1224" y="648" width="64" height="64" shape-rendering="auto"><circle fill="#000000" cx="1.7" cy="1.7" r="1.7"/></svg><svg viewBox="0 0 3.4 3.4" x="200" y="712" width="64" height="64" shape-rendering="auto"><circle fill="#000000" cx="1.7" cy="1.7" r="1.7"/></svg><svg viewBox="0 0 3.4 3.4" x="264" y="712" width="64" height="64" shape-rendering="auto"><circle fill="#000000" cx="1.7" cy="1.7" r="1.7"/></svg><svg viewBox="0 0 3.4 3.4" x="328" y="712" width="64" height="64" shape-rendering="auto"><circle fill="#000000" cx="1.7" cy="1.7" r="1.7"/></svg><svg viewBox="0 0 3.4 3.4" x="392" y="712" width="64" height="64" shape-rendering="auto"><circle fill="#000000" cx="1.7" cy="1.7" r="1.7"/></svg><svg viewBox="0 0 3.4 3.4" x="456" y="712" width="64" height="64" shape-rendering="auto"><circle fill="#000000" cx="1.7" cy="1.7" r="1.7"/></svg><svg viewBox="0 0 3.4 3.4" x="584" y="712" width="64" height="64" shape-rendering="auto"><circle fill="#000000" cx="1.7" cy="1.7" r="1.7"/></svg><svg viewBox="0 0 3.4 3.4" x="648" y="712" width="64" height="64" shape-rendering="auto"><circle fill="#000000" cx="1.7" cy="1.7" r="1.7"/></svg><svg viewBox="0 0 3.4 3.4" x="712" y="712" width="64" height="64" shape-rendering="auto"><circle fill="#000000" cx="1.7" cy="1.7" r="1.7"/></svg><svg viewBox="0 0 3.4 3.4" x="776" y="712" width="64" height="64" shape-rendering="auto"><circle fill="#000000" cx="1.7" cy="1.7" r="1.7"/></svg><svg viewBox="0 0 3.4 3.4" x="840" y="712" width="64" height="64" shape-rendering="auto"><circle fill="#000000" cx="1.7" cy="1.7" r="1.7"/></svg><svg viewBox="0 0 3.4 3.4" x="968" y="712" width="64" height="64" shape-rendering="auto"><circle fill="#000000" cx="1.7" cy="1.7" r="1.7"/></svg><svg viewBox="0 0 3.4 3.4" x="1096" y="712" width="64" height="64" shape-rendering="auto"><circle fill="#000000" cx="1.7" cy="1.7" r="1.7"/></svg><svg viewBox="0 0 3.4 3.4" x="1160" y="712" width="64" height="64" shape-rendering="auto"><circle fill="#000000" cx="1.7" cy="1.7" r="1.7"/></svg><svg viewBox="0 0 3.4 3.4" x="1288" y="712" width="64" height="64" shape-rendering="auto"><circle fill="#000000" cx="1.7" cy="1.7" r="1.7"/></svg><svg viewBox="0 0 3.4 3.4" x="1416" y="712" width="64" height="64" shape-rendering="auto"><circle fill="#000000" cx="1.7" cy="1.7" r="1.7"/></svg><svg viewBox="0 0 3.4 3.4" x="1544" y="712" width="64" height="64" shape-rendering="auto"><circle fill="#000000" cx="1.7" cy="1.7" r="1.7"/></svg><svg viewBox="0 0 3.4 3.4" x="1672" y="712" width="64" height="64" shape-rendering="auto"><circle fill="#000000" cx="1.7" cy="1.7" r="1.7"/></svg><svg viewBox="0 0 3.4 3.4" x="200" y="776" width="64" height="64" shape-rendering="auto"><circle fill="#000000" cx="1.7" cy="1.7" r="1.7"/></svg><svg viewBox="0 0 3.4 3.4" x="264" y="776" width="64" height="64" shape-rendering="auto"><circle fill="#000000" cx="1.7" cy="1.7" r="1.7"/></svg><svg viewBox="0 0 3.4 3.4" x="520" y="776" width="64" height="64" shape-rendering="auto"><circle fill="#000000" cx="1.7" cy="1.7" r="1.7"/></svg><svg viewBox="0 0 3.4 3.4" x="648" y="776" width="64" height="64" shape-rendering="auto"><circle fill="#000000" cx="1.7" cy="1.7" r="1.7"/></svg><svg viewBox="0 0 3.4 3.4" x="712" y="776" width="64" height="64" shape-rendering="auto"><circle fill="#000000" cx="1.7" cy="1.7" r="1.7"/></svg><svg viewBox="0 0 3.4 3.4" x="776" y="776" width="64" height="64" shape-rendering="auto"><circle fill="#000000" cx="1.7" cy="1.7" r="1.7"/></svg><svg viewBox="0 0 3.4 3.4" x="1160" y="776" width="64" height="64" shape-rendering="auto"><circle fill="#000000" cx="1.7" cy="1.7" r="1.7"/></svg><svg viewBox="0 0 3.4 3.4" x="1224" y="776" width="64" height="64" shape-rendering="auto"><circle fill="#000000" cx="1.7" cy="1.7" r="1.7"/></svg><svg viewBox="0 0 3.4 3.4" x="1288" y="776" width="64" height="64" shape-rendering="auto"><circle fill="#000000" cx="1.7" cy="1.7" r="1.7"/></svg><svg viewBox="0 0 3.4 3.4" x="1416" y="776" width="64" height="64" shape-rendering="auto"><circle fill="#000000" cx="1.7" cy="1.7" r="1.7"/></svg><svg viewBox="0 0 3.4 3.4" x="1480" y="776" width="64" height="64" shape-rendering="auto"><circle fill="#000000" cx="1.7" cy="1.7" r="1.7"/></svg><svg viewBox="0 0 3.4 3.4" x="1736" y="776" width="64" height="64" shape-rendering="auto"><circle fill="#000000" cx="1.7" cy="1.7" r="1.7"/></svg><svg viewBox="0 0 3.4 3.4" x="200" y="840" width="64" height="64" shape-rendering="auto"><circle fill="#000000" cx="1.7" cy="1.7" r="1.7"/></svg><svg viewBox="0 0 3.4 3.4" x="520" y="840" width="64" height="64" shape-rendering="auto"><circle fill="#000000" cx="1.7" cy="1.7" r="1.7"/></svg><svg viewBox="0 0 3.4 3.4" x="584" y="840" width="64" height="64" shape-rendering="auto"><circle fill="#000000" cx="1.7" cy="1.7" r="1.7"/></svg><svg viewBox="0 0 3.4 3.4" x="648" y="840" width="64" height="64" shape-rendering="auto"><circle fill="#000000" cx="1.7" cy="1.7" r="1.7"/></svg><svg viewBox="0 0 3.4 3.4" x="712" y="840" width="64" height="64" shape-rendering="auto"><circle fill="#000000" cx="1.7" cy="1.7" r="1.7"/></svg><svg viewBox="0 0 3.4 3.4" x="776" y="840" width="64" height="64" shape-rendering="auto"><circle fill="#000000" cx="1.7" cy="1.7" r="1.7"/></svg><svg viewBox="0 0 3.4 3.4" x="904" y="840" width="64" height="64" shape-rendering="auto"><circle fill="#000000" cx="1.7" cy="1.7" r="1.7"/></svg><svg viewBox="0 0 3.4 3.4" x="968" y="840" width="64" height="64" shape-rendering="auto"><circle fill="#000000" cx="1.7" cy="1.7" r="1.7"/></svg><svg viewBox="0 0 3.4 3.4" x="1096" y="840" width="64" height="64" shape-rendering="auto"><circle fill="#000000" cx="1.7" cy="1.7" r="1.7"/></svg><svg viewBox="0 0 3.4 3.4" x="1160" y="840" width="64" height="64" shape-rendering="auto"><circle fill="#000000" cx="1.7" cy="1.7" r="1.7"/></svg><svg viewBox="0 0 3.4 3.4" x="1288" y="840" width="64" height="64" shape-rendering="auto"><circle fill="#000000" cx="1.7" cy="1.7" r="1.7"/></svg><svg viewBox="0 0 3.4 3.4" x="1352" y="840" width="64" height="64" shape-rendering="auto"><circle fill="#000000" cx="1.7" cy="1.7" r="1.7"/></svg><svg viewBox="0 0 3.4 3.4" x="1480" y="840" width="64" height="64" shape-rendering="auto"><circle fill="#000000" cx="1.7" cy="1.7" r="1.7"/></svg><svg viewBox="0 0 3.4 3.4" x="1608" y="840" width="64" height="64" shape-rendering="auto"><circle fill="#000000" cx="1.7" cy="1.7" r="1.7"/></svg><svg viewBox="0 0 3.4 3.4" x="456" y="904" width="64" height="64" shape-rendering="auto"><circle fill="#000000" cx="1.7" cy="1.7" r="1.7"/></svg><svg viewBox="0 0 3.4 3.4" x="648" y="904" width="64" height="64" shape-rendering="auto"><circle fill="#000000" cx="1.7" cy="1.7" r="1.7"/></svg><svg viewBox="0 0 3.4 3.4" x="712" y="904" width="64" height="64" shape-rendering="auto"><circle fill="#000000" cx="1.7" cy="1.7" r="1.7"/></svg><svg viewBox="0 0 3.4 3.4" x="776" y="904" width="64" height="64" shape-rendering="auto"><circle fill="#000000" cx="1.7" cy="1.7" r="1.7"/></svg><svg viewBox="0 0 3.4 3.4" x="840" y="904" width="64" height="64" shape-rendering="auto"><circle fill="#000000" cx="1.7" cy="1.7" r="1.7"/></svg><svg viewBox="0 0 3.4 3.4" x="904" y="904" width="64" height="64" shape-rendering="auto"><circle fill="#000000" cx="1.7" cy="1.7" r="1.7"/></svg><svg viewBox="0 0 3.4 3.4" x="1224" y="904" width="64" height="64" shape-rendering="auto"><circle fill="#000000" cx="1.7" cy="1.7" r="1.7"/></svg><svg viewBox="0 0 3.4 3.4" x="1288" y="904" width="64" height="64" shape-rendering="auto"><circle fill="#000000" cx="1.7" cy="1.7" r="1.7"/></svg><svg viewBox="0 0 3.4 3.4" x="200" y="968" width="64" height="64" shape-rendering="auto"><circle fill="#000000" cx="1.7" cy="1.7" r="1.7"/></svg><svg viewBox="0 0 3.4 3.4" x="328" y="968" width="64" height="64" shape-rendering="auto"><circle fill="#000000" cx="1.7" cy="1.7" r="1.7"/></svg><svg viewBox="0 0 3.4 3.4" x="520" y="968" width="64" height="64" shape-rendering="auto"><circle fill="#000000" cx="1.7" cy="1.7" r="1.7"/></svg><svg viewBox="0 0 3.4 3.4" x="584" y="968" width="64" height="64" shape-rendering="auto"><circle fill="#000000" cx="1.7" cy="1.7" r="1.7"/></svg><svg viewBox="0 0 3.4 3.4" x="648" y="968" width="64" height="64" shape-rendering="auto"><circle fill="#000000" cx="1.7" cy="1.7" r="1.7"/></svg><svg viewBox="0 0 3.4 3.4" x="712" y="968" width="64" height="64" shape-rendering="auto"><circle fill="#000000" cx="1.7" cy="1.7" r="1.7"/></svg><svg viewBox="0 0 3.4 3.4" x="776" y="968" width="64" height="64" shape-rendering="auto"><circle fill="#000000" cx="1.7" cy="1.7" r="1.7"/></svg><svg viewBox="0 0 3.4 3.4" x="904" y="968" width="64" height="64" shape-rendering="auto"><circle fill="#000000" cx="1.7" cy="1.7" r="1.7"/></svg><svg viewBox="0 0 3.4 3.4" x="1096" y="968" width="64" height="64" shape-rendering="auto"><circle fill="#000000" cx="1.7" cy="1.7" r="1.7"/></svg><svg viewBox="0 0 3.4 3.4" x="1160" y="968" width="64" height="64" shape-rendering="auto"><circle fill="#000000" cx="1.7" cy="1.7" r="1.7"/></svg><svg viewBox="0 0 3.4 3.4" x="1352" y="968" width="64" height="64" shape-rendering="auto"><circle fill="#000000" cx="1.7" cy="1.7" r="1.7"/></svg><svg viewBox="0 0 3.4 3.4" x="1416" y="968" width="64" height="64" shape-rendering="auto"><circle fill="#000000" cx="1.7" cy="1.7" r="1.7"/></svg><svg viewBox="0 0 3.4 3.4" x="1480" y="968" width="64" height="64" shape-rendering="auto"><circle fill="#000000" cx="1.7" cy="1.7" r="1.7"/></svg><svg viewBox="0 0 3.4 3.4" x="1544" y="968" width="64" height="64" shape-rendering="auto"><circle fill="#000000" cx="1.7" cy="1.7" r="1.7"/></svg><svg viewBox="0 0 3.4 3.4" x="1672" y="968" width="64" height="64" shape-rendering="auto"><circle fill="#000000" cx="1.7" cy="1.7" r="1.7"/></svg><svg viewBox="0 0 3.4 3.4" x="1736" y="968" width="64" height="64" shape-rendering="auto"><circle fill="#000000" cx="1.7" cy="1.7" r="1.7"/></svg><svg viewBox="0 0 3.4 3.4" x="200" y="1032" width="64" height="64" shape-rendering="auto"><circle fill="#000000" cx="1.7" cy="1.7" r="1.7"/></svg><svg viewBox="0 0 3.4 3.4" x="264" y="1032" width="64" height="64" shape-rendering="auto"><circle fill="#000000" cx="1.7" cy="1.7" r="1.7"/></svg><svg viewBox="0 0 3.4 3.4" x="328" y="1032" width="64" height="64" shape-rendering="auto"><circle fill="#000000" cx="1.7" cy="1.7" r="1.7"/></svg><svg viewBox="0 0 3.4 3.4" x="392" y="1032" width="64" height="64" shape-rendering="auto"><circle fill="#000000" cx="1.7" cy="1.7" r="1.7"/></svg><svg viewBox="0 0 3.4 3.4" x="456" y="1032" width="64" height="64" shape-rendering="auto"><circle fill="#000000" cx="1.7" cy="1.7" r="1.7"/></svg><svg viewBox="0 0 3.4 3.4" x="840" y="1032" width="64" height="64" shape-rendering="auto"><circle fill="#000000" cx="1.7" cy="1.7" r="1.7"/></svg><svg viewBox="0 0 3.4 3.4" x="968" y="1032" width="64" height="64" shape-rendering="auto"><circle fill="#000000" cx="1.7" cy="1.7" r="1.7"/></svg><svg viewBox="0 0 3.4 3.4" x="1096" y="1032" width="64" height="64" shape-rendering="auto"><circle fill="#000000" cx="1.7" cy="1.7" r="1.7"/></svg><svg viewBox="0 0 3.4 3.4" x="1224" y="1032" width="64" height="64" shape-rendering="auto"><circle fill="#000000" cx="1.7" cy="1.7" r="1.7"/></svg><svg viewBox="0 0 3.4 3.4" x="1288" y="1032" width="64" height="64" shape-rendering="auto"><circle fill="#000000" cx="1.7" cy="1.7" r="1.7"/></svg><svg viewBox="0 0 3.4 3.4" x="1352" y="1032" width="64" height="64" shape-rendering="auto"><circle fill="#000000" cx="1.7" cy="1.7" r="1.7"/></svg><svg viewBox="0 0 3.4 3.4" x="1416" y="1032" width="64" height="64" shape-rendering="auto"><circle fill="#000000" cx="1.7" cy="1.7" r="1.7"/></svg><svg viewBox="0 0 3.4 3.4" x="1480" y="1032" width="64" height="64" shape-rendering="auto"><circle fill="#000000" cx="1.7" cy="1.7" r="1.7"/></svg><svg viewBox="0 0 3.4 3.4" x="200" y="1096" width="64" height="64" shape-rendering="auto"><circle fill="#000000" cx="1.7" cy="1.7" r="1.7"/></svg><svg viewBox="0 0 3.4 3.4" x="392" y="1096" width="64" height="64" shape-rendering="auto"><circle fill="#000000" cx="1.7" cy="1.7" r="1.7"/></svg><svg viewBox="0 0 3.4 3.4" x="456" y="1096" width="64" height="64" shape-rendering="auto"><circle fill="#000000" cx="1.7" cy="1.7" r="1.7"/></svg><svg viewBox="0 0 3.4 3.4" x="584" y="1096" width="64" height="64" shape-rendering="auto"><circle fill="#000000" cx="1.7" cy="1.7" r="1.7"/></svg><svg viewBox="0 0 3.4 3.4" x="712" y="1096" width="64" height="64" shape-rendering="auto"><circle fill="#000000" cx="1.7" cy="1.7" r="1.7"/></svg><svg viewBox="0 0 3.4 3.4" x="776" y="1096" width="64" height="64" shape-rendering="auto"><circle fill="#000000" cx="1.7" cy="1.7" r="1.7"/></svg><svg viewBox="0 0 3.4 3.4" x="840" y="1096" width="64" height="64" shape-rendering="auto"><circle fill="#000000" cx="1.7" cy="1.7" r="1.7"/></svg><svg viewBox="0 0 3.4 3.4" x="1096" y="1096" width="64" height="64" shape-rendering="auto"><circle fill="#000000" cx="1.7" cy="1.7" r="1.7"/></svg><svg viewBox="0 0 3.4 3.4" x="1288" y="1096" width="64" height="64" shape-rendering="auto"><circle fill="#000000" cx="1.7" cy="1.7" r="1.7"/></svg><svg viewBox="0 0 3.4 3.4" x="1352" y="1096" width="64" height="64" shape-rendering="auto"><circle fill="#000000" cx="1.7" cy="1.7" r="1.7"/></svg><svg viewBox="0 0 3.4 3.4" x="1480" y="1096" width="64" height="64" shape-rendering="auto"><circle fill="#000000" cx="1.7" cy="1.7" r="1.7"/></svg><svg viewBox="0 0 3.4 3.4" x="1608" y="1096" width="64" height="64" shape-rendering="auto"><circle fill="#000000" cx="1.7" cy="1.7" r="1.7"/></svg><svg viewBox="0 0 3.4 3.4" x="1672" y="1096" width="64" height="64" shape-rendering="auto"><circle fill="#000000" cx="1.7" cy="1.7" r="1.7"/></svg><svg viewBox="0 0 3.4 3.4" x="1736" y="1096" width="64" height="64" shape-rendering="auto"><circle fill="#000000" cx="1.7" cy="1.7" r="1.7"/></svg><svg viewBox="0 0 3.4 3.4" x="200" y="1160" width="64" height="64" shape-rendering="auto"><circle fill="#000000" cx="1.7" cy="1.7" r="1.7"/></svg><svg viewBox="0 0 3.4 3.4" x="328" y="1160" width="64" height="64" shape-rendering="auto"><circle fill="#000000" cx="1.7" cy="1.7" r="1.7"/></svg><svg viewBox="0 0 3.4 3.4" x="456" y="1160" width="64" height="64" shape-rendering="auto"><circle fill="#000000" cx="1.7" cy="1.7" r="1.7"/></svg><svg viewBox="0 0 3.4 3.4" x="648" y="1160" width="64" height="64" shape-rendering="auto"><circle fill="#000000" cx="1.7" cy="1.7" r="1.7"/></svg><svg viewBox="0 0 3.4 3.4" x="712" y="1160" width="64" height="64" shape-rendering="auto"><circle fill="#000000" cx="1.7" cy="1.7" r="1.7"/></svg><svg viewBox="0 0 3.4 3.4" x="840" y="1160" width="64" height="64" shape-rendering="auto"><circle fill="#000000" cx="1.7" cy="1.7" r="1.7"/></svg><svg viewBox="0 0 3.4 3.4" x="968" y="1160" width="64" height="64" shape-rendering="auto"><circle fill="#000000" cx="1.7" cy="1.7" r="1.7"/></svg><svg viewBox="0 0 3.4 3.4" x="1032" y="1160" width="64" height="64" shape-rendering="auto"><circle fill="#000000" cx="1.7" cy="1.7" r="1.7"/></svg><svg viewBox="0 0 3.4 3.4" x="1288" y="1160" width="64" height="64" shape-rendering="auto"><circle fill="#000000" cx="1.7" cy="1.7" r="1.7"/></svg><svg viewBox="0 0 3.4 3.4" x="1672" y="1160" width="64" height="64" shape-rendering="auto"><circle fill="#000000" cx="1.7" cy="1.7" r="1.7"/></svg><svg viewBox="0 0 3.4 3.4" x="1736" y="1160" width="64" height="64" shape-rendering="auto"><circle fill="#000000" cx="1.7" cy="1.7" r="1.7"/></svg><svg viewBox="0 0 3.4 3.4" x="200" y="1224" width="64" height="64" shape-rendering="auto"><circle fill="#000000" cx="1.7" cy="1.7" r="1.7"/></svg><svg viewBox="0 0 3.4 3.4" x="392" y="1224" width="64" height="64" shape-rendering="auto"><circle fill="#000000" cx="1.7" cy="1.7" r="1.7"/></svg><svg viewBox="0 0 3.4 3.4" x="584" y="1224" width="64" height="64" shape-rendering="auto"><circle fill="#000000" cx="1.7" cy="1.7" r="1.7"/></svg><svg viewBox="0 0 3.4 3.4" x="648" y="1224" width="64" height="64" shape-rendering="auto"><circle fill="#000000" cx="1.7" cy="1.7" r="1.7"/></svg><svg viewBox="0 0 3.4 3.4" x="712" y="1224" width="64" height="64" shape-rendering="auto"><circle fill="#000000" cx="1.7" cy="1.7" r="1.7"/></svg><svg viewBox="0 0 3.4 3.4" x="776" y="1224" width="64" height="64" shape-rendering="auto"><circle fill="#000000" cx="1.7" cy="1.7" r="1.7"/></svg><svg viewBox="0 0 3.4 3.4" x="968" y="1224" width="64" height="64" shape-rendering="auto"><circle fill="#000000" cx="1.7" cy="1.7" r="1.7"/></svg><svg viewBox="0 0 3.4 3.4" x="1032" y="1224" width="64" height="64" shape-rendering="auto"><circle fill="#000000" cx="1.7" cy="1.7" r="1.7"/></svg><svg viewBox="0 0 3.4 3.4" x="1096" y="1224" width="64" height="64" shape-rendering="auto"><circle fill="#000000" cx="1.7" cy="1.7" r="1.7"/></svg><svg viewBox="0 0 3.4 3.4" x="1160" y="1224" width="64" height="64" shape-rendering="auto"><circle fill="#000000" cx="1.7" cy="1.7" r="1.7"/></svg><svg viewBox="0 0 3.4 3.4" x="1224" y="1224" width="64" height="64" shape-rendering="auto"><circle fill="#000000" cx="1.7" cy="1.7" r="1.7"/></svg><svg viewBox="0 0 3.4 3.4" x="1288" y="1224" width="64" height="64" shape-rendering="auto"><circle fill="#000000" cx="1.7" cy="1.7" r="1.7"/></svg><svg viewBox="0 0 3.4 3.4" x="1352" y="1224" width="64" height="64" shape-rendering="auto"><circle fill="#000000" cx="1.7" cy="1.7" r="1.7"/></svg><svg viewBox="0 0 3.4 3.4" x="1416" y="1224" width="64" height="64" shape-rendering="auto"><circle fill="#000000" cx="1.7" cy="1.7" r="1.7"/></svg><svg viewBox="0 0 3.4 3.4" x="1480" y="1224" width="64" height="64" shape-rendering="auto"><circle fill="#000000" cx="1.7" cy="1.7" r="1.7"/></svg><svg viewBox="0 0 3.4 3.4" x="1544" y="1224" width="64" height="64" shape-rendering="auto"><circle fill="#000000" cx="1.7" cy="1.7" r="1.7"/></svg><svg viewBox="0 0 3.4 3.4" x="1736" y="1224" width="64" height="64" shape-rendering="auto"><circle fill="#000000" cx="1.7" cy="1.7" r="1.7"/></svg><svg viewBox="0 0 3.4 3.4" x="712" y="1288" width="64" height="64" shape-rendering="auto"><circle fill="#000000" cx="1.7" cy="1.7" r="1.7"/></svg><svg viewBox="0 0 3.4 3.4" x="1224" y="1288" width="64" height="64" shape-rendering="auto"><circle fill="#000000" cx="1.7" cy="1.7" r="1.7"/></svg><svg viewBox="0 0 3.4 3.4" x="1480" y="1288" width="64" height="64" shape-rendering="auto"><circle fill="#000000" cx="1.7" cy="1.7" r="1.7"/></svg><svg viewBox="0 0 3.4 3.4" x="1736" y="1288" width="64" height="64" shape-rendering="auto"><circle fill="#000000" cx="1.7" cy="1.7" r="1.7"/></svg><svg viewBox="0 0 3.4 3.4" x="712" y="1352" width="64" height="64" shape-rendering="auto"><circle fill="#000000" cx="1.7" cy="1.7" r="1.7"/></svg><svg viewBox="0 0 3.4 3.4" x="840" y="1352" width="64" height="64" shape-rendering="auto"><circle fill="#000000" cx="1.7" cy="1.7" r="1.7"/></svg><svg viewBox="0 0 3.4 3.4" x="904" y="1352" width="64" height="64" shape-rendering="auto"><circle fill="#000000" cx="1.7" cy="1.7" r="1.7"/></svg><svg viewBox="0 0 3.4 3.4" x="968" y="1352" width="64" height="64" shape-rendering="auto"><circle fill="#000000" cx="1.7" cy="1.7" r="1.7"/></svg><svg viewBox="0 0 3.4 3.4" x="1032" y="1352" width="64" height="64" shape-rendering="auto"><circle fill="#000000" cx="1.7" cy="1.7" r="1.7"/></svg><svg viewBox="0 0 3.4 3.4" x="1096" y="1352" width="64" height="64" shape-rendering="auto"><circle fill="#000000" cx="1.7" cy="1.7" r="1.7"/></svg><svg viewBox="0 0 3.4 3.4" x="1224" y="1352" width="64" height="64" shape-rendering="auto"><circle fill="#000000" cx="1.7" cy="1.7" r="1.7"/></svg><svg viewBox="0 0 3.4 3.4" x="1352" y="1352" width="64" height="64" shape-rendering="auto"><circle fill="#000000" cx="1.7" cy="1.7" r="1.7"/></svg><svg viewBox="0 0 3.4 3.4" x="1480" y="1352" width="64" height="64" shape-rendering="auto"><circle fill="#000000" cx="1.7" cy="1.7" r="1.7"/></svg><svg viewBox="0 0 3.4 3.4" x="1608" y="1352" width="64" height="64" shape-rendering="auto"><circle fill="#000000" cx="1.7" cy="1.7" r="1.7"/></svg><svg viewBox="0 0 3.4 3.4" x="1672" y="1352" width="64" height="64" shape-rendering="auto"><circle fill="#000000" cx="1.7" cy="1.7" r="1.7"/></svg><svg viewBox="0 0 3.4 3.4" x="1736" y="1352" width="64" height="64" shape-rendering="auto"><circle fill="#000000" cx="1.7" cy="1.7" r="1.7"/></svg><svg viewBox="0 0 3.4 3.4" x="840" y="1416" width="64" height="64" shape-rendering="auto"><circle fill="#000000" cx="1.7" cy="1.7" r="1.7"/></svg><svg viewBox="0 0 3.4 3.4" x="904" y="1416" width="64" height="64" shape-rendering="auto"><circle fill="#000000" cx="1.7" cy="1.7" r="1.7"/></svg><svg viewBox="0 0 3.4 3.4" x="1032" y="1416" width="64" height="64" shape-rendering="auto"><circle fill="#000000" cx="1.7" cy="1.7" r="1.7"/></svg><svg viewBox="0 0 3.4 3.4" x="1096" y="1416" width="64" height="64" shape-rendering="auto"><circle fill="#000000" cx="1.7" cy="1.7" r="1.7"/></svg><svg viewBox="0 0 3.4 3.4" x="1224" y="1416" width="64" height="64" shape-rendering="auto"><circle fill="#000000" cx="1.7" cy="1.7" r="1.7"/></svg><svg viewBox="0 0 3.4 3.4" x="1480" y="1416" width="64" height="64" shape-rendering="auto"><circle fill="#000000" cx="1.7" cy="1.7" r="1.7"/></svg><svg viewBox="0 0 3.4 3.4" x="1544" y="1416" width="64" height="64" shape-rendering="auto"><circle fill="#000000" cx="1.7" cy="1.7" r="1.7"/></svg><svg viewBox="0 0 3.4 3.4" x="712" y="1480" width="64" height="64" shape-rendering="auto"><circle fill="#000000" cx="1.7" cy="1.7" r="1.7"/></svg><svg viewBox="0 0 3.4 3.4" x="776" y="1480" width="64" height="64" shape-rendering="auto"><circle fill="#000000" cx="1.7" cy="1.7" r="1.7"/></svg><svg viewBox="0 0 3.4 3.4" x="904" y="1480" width="64" height="64" shape-rendering="auto"><circle fill="#000000" cx="1.7" cy="1.7" r="1.7"/></svg><svg viewBox="0 0 3.4 3.4" x="968" y="1480" width="64" height="64" shape-rendering="auto"><circle fill="#000000" cx="1.7" cy="1.7" r="1.7"/></svg><svg viewBox="0 0 3.4 3.4" x="1032" y="1480" width="64" height="64" shape-rendering="auto"><circle fill="#000000" cx="1.7" cy="1.7" r="1.7"/></svg><svg viewBox="0 0 3.4 3.4" x="1224" y="1480" width="64" height="64" shape-rendering="auto"><circle fill="#000000" cx="1.7" cy="1.7" r="1.7"/></svg><svg viewBox="0 0 3.4 3.4" x="1288" y="1480" width="64" height="64" shape-rendering="auto"><circle fill="#000000" cx="1.7" cy="1.7" r="1.7"/></svg><svg viewBox="0 0 3.4 3.4" x="1352" y="1480" width="64" height="64" shape-rendering="auto"><circle fill="#000000" cx="1.7" cy="1.7" r="1.7"/></svg><svg viewBox="0 0 3.4 3.4" x="1416" y="1480" width="64" height="64" shape-rendering="auto"><circle fill="#000000" cx="1.7" cy="1.7" r="1.7"/></svg><svg viewBox="0 0 3.4 3.4" x="1480" y="1480" width="64" height="64" shape-rendering="auto"><circle fill="#000000" cx="1.7" cy="1.7" r="1.7"/></svg><svg viewBox="0 0 3.4 3.4" x="1544" y="1480" width="64" height="64" shape-rendering="auto"><circle fill="#000000" cx="1.7" cy="1.7" r="1.7"/></svg><svg viewBox="0 0 3.4 3.4" x="712" y="1544" width="64" height="64" shape-rendering="auto"><circle fill="#000000" cx="1.7" cy="1.7" r="1.7"/></svg><svg viewBox="0 0 3.4 3.4" x="840" y="1544" width="64" height="64" shape-rendering="auto"><circle fill="#000000" cx="1.7" cy="1.7" r="1.7"/></svg><svg viewBox="0 0 3.4 3.4" x="968" y="1544" width="64" height="64" shape-rendering="auto"><circle fill="#000000" cx="1.7" cy="1.7" r="1.7"/></svg><svg viewBox="0 0 3.4 3.4" x="1160" y="1544" width="64" height="64" shape-rendering="auto"><circle fill="#000000" cx="1.7" cy="1.7" r="1.7"/></svg><svg viewBox="0 0 3.4 3.4" x="1224" y="1544" width="64" height="64" shape-rendering="auto"><circle fill="#000000" cx="1.7" cy="1.7" r="1.7"/></svg><svg viewBox="0 0 3.4 3.4" x="1352" y="1544" width="64" height="64" shape-rendering="auto"><circle fill="#000000" cx="1.7" cy="1.7" r="1.7"/></svg><svg viewBox="0 0 3.4 3.4" x="1480" y="1544" width="64" height="64" shape-rendering="auto"><circle fill="#000000" cx="1.7" cy="1.7" r="1.7"/></svg><svg viewBox="0 0 3.4 3.4" x="1672" y="1544" width="64" height="64" shape-rendering="auto"><circle fill="#000000" cx="1.7" cy="1.7" r="1.7"/></svg><svg viewBox="0 0 3.4 3.4" x="1736" y="1544" width="64" height="64" shape-rendering="auto"><circle fill="#000000" cx="1.7" cy="1.7" r="1.7"/></svg><svg viewBox="0 0 3.4 3.4" x="712" y="1608" width="64" height="64" shape-rendering="auto"><circle fill="#000000" cx="1.7" cy="1.7" r="1.7"/></svg><svg viewBox="0 0 3.4 3.4" x="840" y="1608" width="64" height="64" shape-rendering="auto"><circle fill="#000000" cx="1.7" cy="1.7" r="1.7"/></svg><svg viewBox="0 0 3.4 3.4" x="968" y="1608" width="64" height="64" shape-rendering="auto"><circle fill="#000000" cx="1.7" cy="1.7" r="1.7"/></svg><svg viewBox="0 0 3.4 3.4" x="1032" y="1608" width="64" height="64" shape-rendering="auto"><circle fill="#000000" cx="1.7" cy="1.7" r="1.7"/></svg><svg viewBox="0 0 3.4 3.4" x="1096" y="1608" width="64" height="64" shape-rendering="auto"><circle fill="#000000" cx="1.7" cy="1.7" r="1.7"/></svg><svg viewBox="0 0 3.4 3.4" x="1480" y="1608" width="64" height="64" shape-rendering="auto"><circle fill="#000000" cx="1.7" cy="1.7" r="1.7"/></svg><svg viewBox="0 0 3.4 3.4" x="1608" y="1608" width="64" height="64" shape-rendering="auto"><circle fill="#000000" cx="1.7" cy="1.7" r="1.7"/></svg><svg viewBox="0 0 3.4 3.4" x="1736" y="1608" width="64" height="64" shape-rendering="auto"><circle fill="#000000" cx="1.7" cy="1.7" r="1.7"/></svg><svg viewBox="0 0 3.4 3.4" x="712" y="1672" width="64" height="64" shape-rendering="auto"><circle fill="#000000" cx="1.7" cy="1.7" r="1.7"/></svg><svg viewBox="0 0 3.4 3.4" x="840" y="1672" width="64" height="64" shape-rendering="auto"><circle fill="#000000" cx="1.7" cy="1.7" r="1.7"/></svg><svg viewBox="0 0 3.4 3.4" x="968" y="1672" width="64" height="64" shape-rendering="auto"><circle fill="#000000" cx="1.7" cy="1.7" r="1.7"/></svg><svg viewBox="0 0 3.4 3.4" x="1224" y="1672" width="64" height="64" shape-rendering="auto"><circle fill="#000000" cx="1.7" cy="1.7" r="1.7"/></svg><svg viewBox="0 0 3.4 3.4" x="1288" y="1672" width="64" height="64" shape-rendering="auto"><circle fill="#000000" cx="1.7" cy="1.7" r="1.7"/></svg><svg viewBox="0 0 3.4 3.4" x="1352" y="1672" width="64" height="64" shape-rendering="auto"><circle fill="#000000" cx="1.7" cy="1.7" r="1.7"/></svg><svg viewBox="0 0 3.4 3.4" x="1416" y="1672" width="64" height="64" shape-rendering="auto"><circle fill="#000000" cx="1.7" cy="1.7" r="1.7"/></svg><svg viewBox="0 0 3.4 3.4" x="1480" y="1672" width="64" height="64" shape-rendering="auto"><circle fill="#000000" cx="1.7" cy="1.7" r="1.7"/></svg><svg viewBox="0 0 3.4 3.4" x="1544" y="1672" width="64" height="64" shape-rendering="auto"><circle fill="#000000" cx="1.7" cy="1.7" r="1.7"/></svg><svg viewBox="0 0 3.4 3.4" x="1672" y="1672" width="64" height="64" shape-rendering="auto"><circle fill="#000000" cx="1.7" cy="1.7" r="1.7"/></svg><svg viewBox="0 0 3.4 3.4" x="712" y="1736" width="64" height="64" shape-rendering="auto"><circle fill="#000000" cx="1.7" cy="1.7" r="1.7"/></svg><svg viewBox="0 0 3.4 3.4" x="776" y="1736" width="64" height="64" shape-rendering="auto"><circle fill="#000000" cx="1.7" cy="1.7" r="1.7"/></svg><svg viewBox="0 0 3.4 3.4" x="840" y="1736" width="64" height="64" shape-rendering="auto"><circle fill="#000000" cx="1.7" cy="1.7" r="1.7"/></svg><svg viewBox="0 0 3.4 3.4" x="1032" y="1736" width="64" height="64" shape-rendering="auto"><circle fill="#000000" cx="1.7" cy="1.7" r="1.7"/></svg><svg viewBox="0 0 3.4 3.4" x="1160" y="1736" width="64" height="64" shape-rendering="auto"><circle fill="#000000" cx="1.7" cy="1.7" r="1.7"/></svg><svg viewBox="0 0 3.4 3.4" x="1608" y="1736" width="64" height="64" shape-rendering="auto"><circle fill="#000000" cx="1.7" cy="1.7" r="1.7"/></svg><svg viewBox="0 0 3.4 3.4" x="1672" y="1736" width="64" height="64" shape-rendering="auto"><circle fill="#000000" cx="1.7" cy="1.7" r="1.7"/></svg><svg viewBox="0 0 3.4 3.4" x="1736" y="1736" width="64" height="64" shape-rendering="auto"><circle fill="#000000" cx="1.7" cy="1.7" r="1.7"/></svg><svg version="1.1" id="Ebene_1" x="200" y="200" viewBox="0 0 700 700" style="enable-background:new 0 0 700 700;" xml:space="preserve" width="448" height="448" shape-rendering="auto">

<path fill="#000000" d="M21.2-0.1C9.5-0.1-0.1,9.5-0.1,21.2v78.8v100v100v100v100v100v78.8c0,11.7,9.5,21.3,21.3,21.3h657.6  c11.7,0,21.3-9.5,21.3-21.3V600V500V400V300V200v-100V21.2c0-11.7-9.5-21.3-21.3-21.3H21.2z M600,200v100v100v100v87.8  c0,6.8-5.5,12.2-12.2,12.2H112.2c-6.8,0-12.2-5.5-12.2-12.2V500V400V300V200v-87.8c0-6.8,5.5-12.2,12.2-12.2h475.6  c6.8,0,12.2,5.5,12.2,12.2V200z"/>
</svg>
<svg version="1.1" id="Ebene_1" x="200" y="200" viewBox="0 0 700 700" style="enable-background:new 0 0 700 700;" xml:space="preserve" width="448" height="448" shape-rendering="auto">

<path fill="#000000" d="M500,400V300v-78.8c0-11.7-9.5-21.3-21.3-21.3H221.2c-11.7,0-21.3,9.5-21.3,21.3V300v100v78.8    c0,11.7,9.5,21.3,21.3,21.3h257.5c11.7,0,21.3-9.5,21.3-21.3V400z"/>
</svg>
<svg version="1.1" id="Ebene_1" x="1352" y="200" viewBox="0 0 700 700" style="enable-background:new 0 0 700 700;" xml:space="preserve" width="448" height="448" shape-rendering="auto">

<path fill="#000000" d="M21.2-0.1C9.5-0.1-0.1,9.5-0.1,21.2v78.8v100v100v100v100v100v78.8c0,11.7,9.5,21.3,21.3,21.3h657.6  c11.7,0,21.3-9.5,21.3-21.3V600V500V400V300V200v-100V21.2c0-11.7-9.5-21.3-21.3-21.3H21.2z M600,200v100v100v100v87.8  c0,6.8-5.5,12.2-12.2,12.2H112.2c-6.8,0-12.2-5.5-12.2-12.2V500V400V300V200v-87.8c0-6.8,5.5-12.2,12.2-12.2h475.6  c6.8,0,12.2,5.5,12.2,12.2V200z"/>
</svg>
<svg version="1.1" id="Ebene_1" x="1352" y="200" viewBox="0 0 700 700" style="enable-background:new 0 0 700 700;" xml:space="preserve" width="448" height="448" shape-rendering="auto">

<path fill="#000000" d="M500,400V300v-78.8c0-11.7-9.5-21.3-21.3-21.3H221.2c-11.7,0-21.3,9.5-21.3,21.3V300v100v78.8    c0,11.7,9.5,21.3,21.3,21.3h257.5c11.7,0,21.3-9.5,21.3-21.3V400z"/>
</svg>
<svg version="1.1" id="Ebene_1" x="200" y="1352" viewBox="0 0 700 700" style="enable-background:new 0 0 700 700;" xml:space="preserve" width="448" height="448" shape-rendering="auto">

<path fill="#000000" d="M21.2-0.1C9.5-0.1-0.1,9.5-0.1,21.2v78.8v100v100v100v100v100v78.8c0,11.7,9.5,21.3,21.3,21.3h657.6  c11.7,0,21.3-9.5,21.3-21.3V600V500V400V300V200v-100V21.2c0-11.7-9.5-21.3-21.3-21.3H21.2z M600,200v100v100v100v87.8  c0,6.8-5.5,12.2-12.2,12.2H112.2c-6.8,0-12.2-5.5-12.2-12.2V500V400V300V200v-87.8c0-6.8,5.5-12.2,12.2-12.2h475.6  c6.8,0,12.2,5.5,12.2,12.2V200z"/>
</svg>
<svg version="1.1" id="Ebene_1" x="200" y="1352" viewBox="0 0 700 700" style="enable-background:new 0 0 700 700;" xml:space="preserve" width="448" height="448" shape-rendering="auto">

<path fill="#000000" d="M500,400V300v-78.8c0-11.7-9.5-21.3-21.3-21.3H221.2c-11.7,0-21.3,9.5-21.3,21.3V300v100v78.8    c0,11.7,9.5,21.3,21.3,21.3h257.5c11.7,0,21.3-9.5,21.3-21.3V400z"/>
</svg>
</svg>

</svg>
